<?xml version="1.0" encoding="utf-8"?>
<svg version="1.1" id="Layer_1" xmlns="http://www.w3.org/2000/svg" xmlns:xlink="http://www.w3.org/1999/xlink" x="0px" y="0px"
	 style="enable-background:new 0 0 80 80; fill: #ee0d00;" xml:space="preserve">
<g>
	<g>
		<path d="M74.77,9.67c-3.86-1.04-8.59-0.45-12.57-0.43C53.24,9.3,44.26,9.31,35.3,9.6c-4.91,0.16-9.8,0.43-14.69,0.77
			c-4.63,0.32-10.04,1.1-14.63-0.03C1.79,9.33,3.45,6.24,6.38,4.67C7.26,4.2,8.19,3.84,9.16,3.61c0.67-0.16,2.39-0.05,2.96-0.33
			c0.9-0.44,1.85-2.26,0-2.27C8.67,0.97,4.58,2.23,2.28,4.96c-2.8,3.33-0.64,6.6,3.1,7.56c3.86,0.99,8.31,0.56,12.25,0.33
			c4.72-0.28,9.44-0.65,14.16-0.84c2.22-0.09,4.45-0.16,6.68-0.22c0.26,4.71,0.44,9.42,0.54,14.13c-0.95,0.03-1.87,0.09-2.72,0.16
			c-2.2,0.18-7.13,1.45-8.67-0.7c-1.53-2.14,0.68-2.78,2-3.35c0.66-0.28,2.64-1.77,0.6-2.19c-3.49-0.72-6.41,2.94-4.86,6.18
			c1.41,2.95,5.12,2.8,7.88,2.59c1.36-0.1,3.47-0.3,5.8-0.35c0.11,7.8-0.02,15.59-0.39,23.38c-0.02,0.43-0.04,0.86-0.06,1.3
			c-2.42-0.81-5.02-1.66-7.4-1.35c-3.78,0.49-5.92,5.98-1.76,7.76c0.81,0.35,3.35,0.57,3.82-0.58c0.84-2.07-1.6-1.17-2.29-1.37
			c-1.39-0.42-2.1-1.71-0.94-2.94c1.19-1.26,3.53-0.51,4.92-0.15c1.02,0.27,2.22,0.66,3.54,1.06c-0.25,5.25-0.54,10.55-1.24,15.73
			c-0.18,1.29-1.05,6.2-3.24,5.61c-1.06-0.29-1.99-4.27-2.1-4.98c-0.38-2.56,1.7-6.96-0.82-8.82c-2.08-1.53-5.5-0.27-6.9,1.59
			c-1.05,1.39-0.9,5.33,1.18,3.13c0.9-0.95,0.32-2.01,1.83-2.74c0.75-0.37,2.68-0.42,2.73,0.01c0.45,3.57-0.64,6.62,0.66,10.15
			c1.14,3.1,3.23,5.56,6.34,2.63c2.41-2.27,2.55-6.08,2.84-9.15c0.4-4.16,0.69-8.34,0.93-12.51c6.01,1.72,13.11,2.85,14.53-4.36
			c0.7-3.53-0.06-6.81-2.42-9.45c-0.76-0.85-1.37-0.9-1.01-2.12c0.22-0.74,1.18-1.3,1.57-1.95c0.63-1.03,0.85-2.16,0.79-3.36
			c-0.37-7.01-6.88-8.71-12.87-8.87c-0.06-3.28-0.17-6.56-0.32-9.83c-0.04-0.87,0.14-2.85,0.02-4.35
			c6.19-0.13,12.38-0.17,18.57-0.19c2.96-0.01,5.91,0.05,8.87,0.16c2.06,0.08,5.29-0.17,7.01,1.16c1.87,1.44,2.03,5.07-0.01,6.42
			c-1.08,0.72-3.02,0.69-4.2,0.25c-1.21-0.45-2.77-3.02-4.06-2.49c-2.99,1.23,3.07,4.63,4.24,4.86c4.23,0.82,7.54-1.41,7.6-5.74
			C79.04,12.87,78.12,10.57,74.77,9.67z M51.68,36.16c-0.71,3.21-3.72,3.2-6.33,3.95c-1.12,0.32-2.66,0.87-1.17,2.21
			c0.48,0.43,1.9,0.12,2.47,0.15c1.27,0.06,2.6,0.18,3.74,0.79c2.75,1.48,3.37,5.63,2.53,8.42c-1.59,5.3-8.16,3.12-11.88,2.04
			c-0.07-0.02-0.15-0.04-0.22-0.06c0.43-8.21,0.61-16.43,0.51-24.65c0-0.25-0.01-0.5-0.01-0.75C47.09,28.42,53.07,29.91,51.68,36.16
			z" />
	</g>
</g>
</svg>
